<svg xmlns="http://www.w3.org/2000/svg" xmlns:xlink="http://www.w3.org/1999/xlink" version="1.1" x="0px" y="0px" viewBox="0 0 100 125" enable-background="new 0 0 100 100" xml:space="preserve"><path fill-rule="evenodd" clip-rule="evenodd" d="M72.563,43.557c-4.789-0.635-9.16-2.286-13.361-4.896  c0.998,3.154,2.033,6.08,2.836,9.07c0.887,3.303,1.656,6.668,1.006,10.121c-0.207,1.104-0.605,2.258-1.23,3.176  c-0.563,0.83-0.758,1.477-0.533,2.469c1.457,6.416,1.592,12.885,0.613,19.385c-0.408,2.707-2.666,4.379-5.398,3.98  c-2.439-0.355-4.09-2.736-3.703-5.328c0.809-5.439,0.645-10.846-0.471-16.236c-0.252-1.221-0.699-1.572-2.006-1.465  c-2.295,0.189-4.617,0.053-7.221,0.053c-0.393,2.58-1.012,5.02-1.075,7.475c-0.088,3.404,0.15,6.828,0.423,10.229  c0.201,2.496-1.328,4.867-3.684,5.264c-2.699,0.455-5.065-1.203-5.473-3.889c-1.016-6.691-0.811-13.342,0.654-19.961  c0.16-0.719-0.048-1.563-0.24-2.309c-0.369-1.438-0.808-2.863-1.311-4.26c-0.16-0.445-0.541-0.994-0.948-1.139  c-7.778-2.762-9.909-8.389-5.772-15.57c3.135-5.438,7.724-9.542,12.609-13.58c2.157,3.398,5.046,5.454,9.028,5.547  c3.98,0.093,7.033-1.678,9.197-4.916c1.74,1.498,3.373,3.074,5.176,4.419c4.191,3.128,8.877,4.964,14.18,5.044  c2.037,0.031,3.422,1.373,3.736,3.338c0.08,0.512,0.465,0.971,0.68,1.467c0.463,1.072,0.996,2.128,1.295,3.246  c0.082,0.303-0.617,1.165-0.883,1.134c-0.482-0.058-1.037-0.508-1.324-0.949c-0.309-0.474-0.344-1.125-0.48-1.634  c-1.322,0.415-2.439,0.766-3.795,1.191c-0.027,0.271-0.105,0.773-0.121,1.277c-0.332,11.369-0.654,22.74-0.982,34.109  c-0.072,2.506-0.166,5.01-0.234,7.516c-0.023,0.885-0.146,1.73-1.279,1.693c-1.094-0.037-1.072-0.887-1.049-1.695  c0.383-12.621,0.77-25.242,1.135-37.865C72.607,47.289,72.563,45.507,72.563,43.557z M32.363,47.926  c0.727-2.801,1.423-5.487,2.119-8.174c-0.104-0.061-0.207-0.119-0.311-0.18c-1.063,1.841-2.245,3.625-3.15,5.54  C30.329,46.578,30.704,47.127,32.363,47.926z"/><path fill-rule="evenodd" clip-rule="evenodd" d="M57.547,21.272c0.02,5.398-4.504,9.966-9.899,9.993  c-5.369,0.027-9.953-4.528-9.985-9.924c-0.032-5.391,4.509-9.956,9.914-9.97C52.994,11.357,57.525,15.857,57.547,21.272z"/><text x="0" y="115" fill="#000000" font-size="5px" font-weight="bold" font-family="'Helvetica Neue', Helvetica, Arial-Unicode, Arial, Sans-serif">Created by Anaïs Simaan</text><text x="0" y="120" fill="#000000" font-size="5px" font-weight="bold" font-family="'Helvetica Neue', Helvetica, Arial-Unicode, Arial, Sans-serif">from the Noun Project</text></svg>