<svg xmlns="http://www.w3.org/2000/svg" xmlns:xlink="http://www.w3.org/1999/xlink" version="1.1" x="0px" y="0px" viewBox="0 0 135.095 272.985" style="enable-background:new 0 0 135.095 218.388;" xml:space="preserve"><g><path d="M135.058,106.288c-2.107-22.38-11.356-37.406-20.22-46.426C105.977,50.8,97.7,47.521,96.977,47.234   c-1.623-0.627-3.323-0.683-4.888-0.276c-0.179-0.023-0.359-0.036-0.542-0.045c-0.083,0.096-0.158,0.199-0.243,0.293   c-1.271,1.426-2.712,2.686-4.284,3.759c-3.811,2.601-8.401,4.097-13.311,4.097c-1.799,0-3.609-0.21-5.375-0.621   c-1.561-0.363-3.06-0.878-4.485-1.528c-3.064-1.397-5.764-3.446-7.976-6.003c-0.145-0.169-0.291-0.337-0.433-0.511   c-0.042,0.003-0.083,0.001-0.125,0.004c-0.786,0.096-11.009,0.943-22.026,8.379c-5.481,3.719-11.107,9.172-15.407,16.839   c-3.668,6.517-6.32,14.588-7.367,24.304c-6.186,2.698-10.512,8.859-10.513,16.04L0,213.826c0,2.478,2.012,4.488,4.488,4.488   c2.478,0,4.486-2.011,4.486-4.488V111.967c0.005-2.338,0.949-4.454,2.474-5.994c1.365,2.04,3.642,3.432,6.283,3.553   c0.123,0.005,0.245,0.008,0.367,0.008c2.429,0,4.621-1.095,6.095-2.831c1.143,1.45,1.831,3.275,1.834,5.264h-0.002   c0,2.478,2.01,4.487,4.488,4.487s4.488-2.01,4.488-4.487c-0.003-6.376-3.421-11.937-8.516-14.996   c0.88-7.46,2.881-13.113,5.345-17.514c4.115-7.302,9.677-11.418,14.658-13.881c-5.114,25.679-16.415,87.038-9.413,95.304   c1.477,1.744,4.372,3.349,8.2,4.742c-0.62,11.508-1.023,25.172-1.025,41.263c0,6.354,5.147,11.502,11.5,11.502   c6.352,0,11.501-5.149,11.501-11.502c-0.001-14.125,0.317-26.257,0.816-36.605c1.858,0.183,3.737,0.33,5.619,0.436   c1.882-0.106,3.761-0.253,5.619-0.436c0.499,10.348,0.818,22.481,0.817,36.606c0,6.352,5.148,11.5,11.5,11.5   c6.353,0,11.501-5.148,11.501-11.5c-0.002-16.092-0.405-29.755-1.026-41.264c3.829-1.393,6.726-2.998,8.202-4.742   c6.679-7.887-3.302-64.111-8.673-91.559c0.785,0.728,1.584,1.514,2.388,2.37c6.467,6.934,13.334,17.957,15.115,36.125   c0.395,4.139,3.88,7.236,7.954,7.236c0.256,0,0.514-0.012,0.772-0.037C132.254,114.595,135.479,110.687,135.058,106.288z"/><path d="M79.045,8.449c2.365,0.551,4.563,1.442,6.558,2.608C85.14,4.875,79.987,0,73.688,0c-6.294,0-11.441,4.865-11.914,11.038   c3.511-2.046,7.577-3.211,11.895-3.211C75.469,7.828,77.277,8.035,79.045,8.449z"/><path d="M58.568,46.893c1.24,1.215,2.633,2.289,4.159,3.185c1.84,1.082,3.871,1.907,6.06,2.417   c7.458,1.737,14.91-0.621,20.012-5.602c2.85-2.782,4.969-6.38,5.939-10.547c2.112-9.071-1.826-18.137-9.181-22.97   c-2.071-1.361-4.413-2.387-6.968-2.981c-6.001-1.398-11.997-0.142-16.771,2.995c-4.473,2.939-7.871,7.529-9.181,13.153   c-1.762,7.56,0.684,15.115,5.804,20.22C58.485,46.806,58.525,46.85,58.568,46.893z"/></g><text x="0" y="233.388" fill="#000000" font-size="5px" font-weight="bold" font-family="'Helvetica Neue', Helvetica, Arial-Unicode, Arial, Sans-serif">Created by Gan Khoon Lay</text><text x="0" y="238.388" fill="#000000" font-size="5px" font-weight="bold" font-family="'Helvetica Neue', Helvetica, Arial-Unicode, Arial, Sans-serif">from the Noun Project</text></svg>