<svg xmlns="http://www.w3.org/2000/svg" xmlns:xlink="http://www.w3.org/1999/xlink" version="1.1" x="0px" y="0px" viewBox="0 0 100 125"><path d="M342,972 c175,62,341,62,516,0 c86,103,142,151,142,234 c0,85,-58,138,-169,157 c-74,12,-159,28,-216,135 c-8,14,-22,14,-30,0 c-57,-107,-139,-122,-216,-135 c-111,-19,-169,-72,-169,-157 c0,-83,56,-131,142,-234 Z M50,0 l100,0 c0,177,0,176,113,230 l147,71 c65,31,140,69,140,159 l0,80 l-100,0 c0,-60,10,-114,-66,-148 l-151,-68 c-171,-77,-183,-106,-183,-324 Z M1050,0 l100,0 c0,218,-12,247,-183,324 l-151,68 c-76,34,-66,88,-66,148 l-100,0 l0,-80 c0,-90,75,-128,140,-159 l147,-71 c113,-54,113,-54,113,-230 Z M290,866 c0,-549,620,-549,620,0 c0,449,-620,449,-620,0 Z M390,879 c0,296,420,296,420,0 c0,-426,-420,-426,-420,0 Z M725,515 c-75,-75,-175,-75,-250,0 l-73,-168 l-227,-97 l-125,-250 l1100,0 l-125,250 l-225,95 Z M601,691 c36,0,65,0,65,0 c0,0,-29,0,-65,0 c-36,0,-65,0,-65,0 c0,0,29,0,65,0 Z M601,691 " fill="#000000" stroke="none" stroke-dasharray="none" stroke-linecap="inherit" stroke-linejoin="inherit" stroke-width="1" transform="matrix(0.0416666666667,0.0,0.0,-0.0416666666667,25.0,75.0)"/><text x="0" y="115" fill="#000000" font-size="5px" font-weight="bold" font-family="'Helvetica Neue', Helvetica, Arial-Unicode, Arial, Sans-serif">Created by Thomas Helbig</text><text x="0" y="120" fill="#000000" font-size="5px" font-weight="bold" font-family="'Helvetica Neue', Helvetica, Arial-Unicode, Arial, Sans-serif">from the Noun Project</text></svg>