<svg xmlns="http://www.w3.org/2000/svg" xmlns:xlink="http://www.w3.org/1999/xlink" version="1.1" x="0px" y="0px" viewBox="0 0 100 125" enable-background="new 0 0 100 100" xml:space="preserve"><g><ellipse fill="#000000" cx="53.5" cy="28.4" rx="20.8" ry="21.8"/><path fill="#000000" d="M24,75.9L24,75.9L24,75.9C24,75.9,24,75.9,24,75.9c0-0.3,0-0.5,0-0.8c0-0.1,0-0.2,0-0.3   c0-0.2,0-0.3-0.1-0.5c0-0.1-0.1-0.2-0.1-0.4c0-0.1-0.1-0.3-0.1-0.4c0-0.1-0.1-0.3-0.1-0.4c0-0.1-0.1-0.2-0.1-0.3   c-0.1-0.1-0.1-0.3-0.2-0.4c0-0.1-0.1-0.2-0.1-0.3c-0.1-0.1-0.2-0.3-0.3-0.4c0-0.1-0.1-0.1-0.1-0.2c-0.1-0.2-0.2-0.3-0.3-0.4   c0-0.1-0.1-0.1-0.1-0.2c-0.1-0.2-0.3-0.3-0.4-0.4c0,0-0.1-0.1-0.1-0.1c-0.1-0.2-0.3-0.3-0.5-0.4c0,0,0,0-0.1-0.1   c-0.2-0.1-0.3-0.3-0.5-0.4c0,0,0,0,0,0c-0.2-0.1-0.4-0.3-0.6-0.4c0,0,0,0,0,0c-1.2-0.7-2.5-1.1-4-1.1c-4.4,0-7.9,3.6-7.9,7.9   c0,3.5,2.3,6.5,5.5,7.6c0,0,0,0,0,0c0,0,0,0,0,0c0.1,0,0.2,0.1,0.4,0.1c0.1,0,0.2,0.1,0.3,0.1c0.1,0,0.2,0,0.3,0.1   c0.1,0,0.3,0,0.4,0.1c0.1,0,0.2,0,0.3,0c0.2,0,0.5,0,0.7,0C20.4,83.8,24,80.3,24,75.9z"/><path fill="#000000" d="M95,79c-2.4-19.6-27.8-25.9-30.8-26.5h-5v8.3H47.9v-8.3h-5c-2.1,0.5-15.1,3.7-23.6,12.2V51.7h8.2v-6h-8.2   v-7.6h-6v7.6H5v6h8.2v13.9c0.9-0.2,1.8-0.4,2.8-0.4c5.8,0,10.6,4.8,10.6,10.6c0,5.2-3.7,9.5-8.6,10.4c6.2,3.2,17.3,7.1,35.4,7.1   l0-0.1l0,0.1c22.8,0,34.6-6.2,39.2-9.5C94.4,82.9,95.2,80.9,95,79z"/></g><text x="0" y="115" fill="#000000" font-size="5px" font-weight="bold" font-family="'Helvetica Neue', Helvetica, Arial-Unicode, Arial, Sans-serif">Created by parkjisun</text><text x="0" y="120" fill="#000000" font-size="5px" font-weight="bold" font-family="'Helvetica Neue', Helvetica, Arial-Unicode, Arial, Sans-serif">from the Noun Project</text></svg>