<svg xmlns="http://www.w3.org/2000/svg" viewBox="0 0 1688.6 669.49"><title>milamb-logo2</title><path d="M1797,582.48c9-19,13.47-40.55,13.47-64.43,0-33.67-8.3-63.33-24.68-88.16-17.63-26.71-41.92-45.36-70.27-54-20.16-6.11-45.19-8.95-78.77-8.95H1525.24a67.15,67.15,0,0,0-30.84,7.47,66.84,66.84,0,0,0-6.45-2.91,127.1,127.1,0,0,0,1.32-17.67q0-6.5-.61-12.94a116.46,116.46,0,0,0-100-175.35q-1.5,0-3,0A146.59,146.59,0,0,0,1321,150.26h-.62a146.6,146.6,0,0,0-143.69,117.8,127.46,127.46,0,0,0-48.22,99.39q0,3.14.12,6.25a67.73,67.73,0,0,0-30.9,30.42A67.52,67.52,0,0,0,1037.44,367H965.19a67.51,67.51,0,0,0-64.5,47.59l-62.5,202.48V434.48a67.5,67.5,0,0,0-67.5-67.5H698.92a67.26,67.26,0,0,0-30.86,7.47A67.26,67.26,0,0,0,637.2,367H565.43a67.23,67.23,0,0,0-30.86,7.47A67.29,67.29,0,0,0,503.71,367H401.55a67.45,67.45,0,0,0-49,21.12A67.48,67.48,0,0,0,303.46,367H198.2a67.5,67.5,0,0,0-67.5,67.5V752.24a67.5,67.5,0,0,0,67.5,67.5h58.37a67.26,67.26,0,0,0,30.52-7.27,67.34,67.34,0,0,0,30.49,7.27h52.15a67.31,67.31,0,0,0,33.37-8.82,67.1,67.1,0,0,0,33.38,8.82h67.23a67.17,67.17,0,0,0,30.86-7.47,67.11,67.11,0,0,0,30.86,7.47H637.2a67.14,67.14,0,0,0,30.86-7.47,67.14,67.14,0,0,0,30.86,7.47H933.05A67.51,67.51,0,0,0,995.2,778.6a67.49,67.49,0,0,0,62.14,41.14h73.4a67.72,67.72,0,0,0,13.61-1.38,68.3,68.3,0,0,0,13.67,1.38h58.37a67.22,67.22,0,0,0,30.51-7.27,67.37,67.37,0,0,0,30.49,7.27h52.16a67.27,67.27,0,0,0,33.36-8.82,67.13,67.13,0,0,0,33.38,8.82h67.23a67.14,67.14,0,0,0,30.86-7.47,67.14,67.14,0,0,0,30.86,7.47h111.49c34.48,0,61.77-3.38,83.42-10.32,28.51-9.15,53.3-27.71,71.68-53.69,18.23-25.76,27.47-56.46,27.47-91.25C1819.3,633.29,1811.56,605.53,1797,582.48Z" transform="translate(-130.7 -150.26)" style="fill:#fbd490"/><polygon points="220.4 478.37 174.22 282.13 68.96 282.13 68.96 599.89 127.33 599.89 127.33 333.81 188.34 599.89 240.49 599.89 307.24 333.81 307.24 599.89 374.46 599.89 374.46 282.13 272.31 282.13 220.4 478.37" style="fill:#aa7221"/><rect x="436.19" y="282.13" width="71.77" height="317.76" style="fill:#aa7221"/><path d="M966.65,432.38,877.42,721.47V690.55H772.15V432.38H700.38V750.15H934.51l16-65.65h92l16.29,65.65h73.41L1038.9,432.38ZM964.35,630,996,499.84,1029,630Z" transform="translate(-130.7 -150.26)" style="fill:#aa7221"/><polygon points="1180.22 478.37 1134.04 282.13 1028.78 282.13 1028.78 599.89 1087.15 599.89 1087.15 333.81 1148.16 599.89 1200.31 599.89 1267.06 333.81 1267.06 599.89 1334.28 599.89 1334.28 282.13 1232.13 282.13 1180.22 478.37" style="fill:#aa7221"/><path d="M1697.76,584.4q46.65-15.14,46.65-68.44,0-30.5-13.51-51t-33.5-26.53q-20-6.06-59.21-6.06H1526.71V750.15h111.48q40.66,0,62.8-7.1t37.2-28.4q15.07-21.3,15.07-52.27Q1753.26,603.49,1697.76,584.4ZM1595.61,483.83h28.47q29.42,0,38.39,11.29a40.18,40.18,0,0,1,9,25.72,45.28,45.28,0,0,1-9,27.71q-9,12.11-43.66,12.1h-23.2Zm35.17,211.84h-35.17V612.1h35.17q24.87,0,37.2,9.45t12.32,32.57Q1680.3,695.67,1630.78,695.67Z" transform="translate(-130.7 -150.26)" style="fill:#aa7221"/><path d="M1346.27,403.08c-16.27-.07-30.64-9-40-22.74h-2.54c-7.77,22-26.2,37.51-47.84,37.42-1,0-1.9-.11-2.86-.17L1310.9,637l73.22-253C1374.65,395.75,1361.2,403.14,1346.27,403.08Z" transform="translate(-130.7 -150.26)" style="fill:#fbd490"/><polygon points="1216.88 264.77 1226.06 254.16 1235.14 264.84 1225.97 275.44 1216.88 264.77" style="fill:#eeaf4b"/><polygon points="1180.46 243.35 1189.55 254.03 1180.38 264.63 1171.29 253.95 1180.46 243.35" style="fill:#eeaf4b"/><polygon points="1207.73 275.4 1198.56 286 1189.47 275.32 1198.64 264.72 1207.73 275.4" style="fill:#eeaf4b"/><polygon points="1216.73 307.34 1207.65 296.66 1216.82 286.06 1225.91 296.74 1216.73 307.34" style="fill:#eeaf4b"/><polygon points="1180.29 285.92 1171.12 296.53 1162.04 285.85 1171.21 275.25 1180.29 285.92" style="fill:#eeaf4b"/><polygon points="1189.39 296.58 1198.47 307.26 1189.3 317.87 1180.22 307.19 1189.39 296.58" style="fill:#eeaf4b"/><polygon points="1207.47 339.23 1198.38 328.55 1207.56 317.95 1216.64 328.63 1207.47 339.23" style="fill:#eeaf4b"/><polygon points="1143.77 285.76 1152.85 296.44 1143.68 307.04 1134.6 296.36 1143.77 285.76" style="fill:#eeaf4b"/><polygon points="1152.78 317.7 1161.95 307.1 1171.03 317.78 1161.86 328.38 1152.78 317.7" style="fill:#eeaf4b"/><polygon points="1180.12 328.47 1189.2 339.15 1180.03 349.75 1170.95 339.07 1180.12 328.47" style="fill:#eeaf4b"/><polygon points="1198.2 371.11 1189.11 360.43 1198.28 349.83 1207.37 360.51 1198.2 371.11" style="fill:#eeaf4b"/><polygon points="1152.69 339 1161.77 349.67 1152.6 360.27 1143.52 349.6 1152.69 339" style="fill:#eeaf4b"/><polygon points="1179.94 371.05 1170.77 381.65 1161.69 370.98 1170.86 360.37 1179.94 371.05" style="fill:#eeaf4b"/><polygon points="1188.96 403 1179.87 392.32 1189.05 381.72 1198.13 392.39 1188.96 403" style="fill:#eeaf4b"/><polygon points="1179.7 434.88 1170.61 424.2 1179.78 413.6 1188.87 424.28 1179.7 434.88" style="fill:#eeaf4b"/><polygon points="1160.47 412.29 1161.52 413.52 1170.69 402.92 1161.6 392.24 1156.68 397.93 1160.47 412.29" style="fill:#eeaf4b"/><path d="M1257.39,434.6l8-9.26-6.4-7.52c-1.06.07-2.09.28-3.16.27-.8,0-1.58-.08-2.36-.15l-.37.43Z" transform="translate(-130.7 -150.26)" style="fill:#eeaf4b"/><path d="M1292.83,414.81l-6.88-8.08a49.6,49.6,0,0,1-10.14,6.58l-1.24,1.43,9.09,10.67Z" transform="translate(-130.7 -150.26)" style="fill:#eeaf4b"/><circle cx="1126.95" cy="237.61" r="60.19" style="fill:#79e09b"/><path d="M1322.21,237.66A78.54,78.54,0,0,0,1244,329.3a59.94,59.94,0,0,1,73.33,66.12c1.41.09,2.81.23,4.25.24a79,79,0,0,0,.64-158Z" transform="translate(-130.7 -150.26)" style="fill:#f75b57"/><path d="M1400.29,326a79,79,0,0,1-78.72,69.62c-1.44,0-2.84-.15-4.25-.24a59.68,59.68,0,0,1-3.13,12.91,60.15,60.15,0,1,0,86.1-82.29Z" transform="translate(-130.7 -150.26)" style="fill:#00d7ec"/><path d="M1389.86,253a48.71,48.71,0,0,0-17.26,3.12A78.86,78.86,0,0,1,1400.89,317a79.89,79.89,0,0,1-.58,9.08,60.75,60.75,0,0,1,14.92,17.45A48.87,48.87,0,0,0,1389.86,253Z" transform="translate(-130.7 -150.26)" style="fill:#e3e82a"/><path d="M1396,343.63c-.81,2.2-1.69,4.36-2.68,6.46C1394.33,348,1395.23,345.83,1396,343.63Z" transform="translate(-130.7 -150.26)" style="fill:#e3e82a"/><path d="M1399.94,328.11c-.29,2-.59,3.92-1,5.83C1399.34,332,1399.66,330.07,1399.94,328.11Z" transform="translate(-130.7 -150.26)" style="fill:#e3e82a"/><path d="M1398.35,336.1c-.53,2-1.1,4.06-1.77,6C1397.25,340.16,1397.83,338.14,1398.35,336.1Z" transform="translate(-130.7 -150.26)" style="fill:#e3e82a"/></svg>